<svg xmlns="http://www.w3.org/2000/svg" viewBox="0 0 512 512" width="512" height="512">
  <rect width="512" height="512" rx="112" fill="#1A73E8"/>
  <path d="M336 176h-16v-16c0-17.6-14.4-32-32-32h-64c-17.6 0-32 14.4-32 32v16h-16c-26.5 0-48 21.5-48 48v192c0 26.5 21.5 48 48 48h160c26.5 0 48-21.5 48-48V224c0-26.5-21.5-48-48-48zm-112-16h64v32h-64v-32zm128 256c0 8.8-7.2 16-16 16H176c-8.8 0-16-7.2-16-16V224c0-8.8 7.2-16 16-16h16v32c0 17.6 14.4 32 32 32h64c17.6 0 32-14.4 32-32v-32h16c8.8 0 16 7.2 16 16v192z" fill="white"/>
  <path d="M224 336l-32-32-22.6 22.6 54.6 54.6 96-96L297.4 262.6z" fill="white"/>
</svg>
